# xmcd
#
# Track frame offsets:
#	150
#	19875
#	43434
#	60679
#	81313
#	101995
#	126354
#	143770
#	159744
#	180899
#	199045
#	217913
#
# Disc length: 3143 seconds
#
# Revision: 0
# Processed by: cddbd v1.5.1PL2 Copyright (c) Steve Scherf et al.
# Submitted via: dBpowerAMP V4.0
#
DISCID=ae0c450c
DTITLE=Coro de Huelva - Sevillanas Rocieras Vol. 3
DYEAR=1995
DGENRE=Sevillanas
TTITLE0=Sin ella Rocio
TTITLE1=En el sitio de siempre
TTITLE2=Ay que semana me espera
TTITLE3=Brisa de Matalascanas
TTITLE4=Desde mi puerta
TTITLE5=Aqui estamos pa cantarte
TTITLE6=El rociero de verdad
TTITLE7=Tamborilero
TTITLE8=Cuando sale la Senora
TTITLE9=Pa mi gente rociera
TTITLE10=Tamboril
TTITLE11=Verde terciopelo
EXTD=
EXTT0=
EXTT1=
EXTT2=
EXTT3=
EXTT4=
EXTT5=
EXTT6=
EXTT7=
EXTT8=
EXTT9=
EXTT10=
EXTT11=
PLAYORDER=
